
@startuml

    !include lexakai.theme
    
    title "com.telenav.kivakit.network.http.internal.lexakai"
    
    interface UmlDiagramIdentifier
    UmlDiagramIdentifier <|-- DiagramHttp
    interface DiagramHttp
    {
    }
    
    interface UmlDiagramIdentifier
    UmlDiagramIdentifier <|-- DiagramHttps
    interface DiagramHttps
    {
    }
    
@enduml

