
@startuml

    !include lexakai.theme
    
    title "com.telenav.kivakit.resource.resources"
    
    abstract BaseReadableResource
    abstract BaseWritableResource
    
    BaseReadableResource <|-- InputResource
    class InputResource
    {
        --(constructors)--
        +InputResource(InputStream)
    }
    
    BaseWritableResource <|-- NullResource
    class NullResource
    {
        --(constructors)--
        +NullResource()
    }
    
    BaseWritableResource <|-- OutputResource
    class OutputResource
    {
        --(constructors)--
        +OutputResource(OutputStream)
    }
    
    BaseReadableResource <|-- ResourceSection
    class ResourceSection
    {
        --(constructors)--
        +ResourceSection(Resource, long, long)
    }
    
    BaseWritableResource <|-- StringOutputResource
    class StringOutputResource
    {
        --
        +String string()
    }
    
    BaseReadableResource <|-- StringResource
    class StringResource
    {
        --(constructors)--
        +StringResource(ResourcePath, String)
        +StringResource(String)
        --
        +StringResource transform(Function<String,String> transformation)
    }
    
@enduml

