@startuml

    !include ../lexakai/lexakai.theme
    
    title "com.telenav.kivakit.core.collections.project"
    
    KryoTypes <|-- CoreCollectionsKryoTypes
    class CoreCollectionsKryoTypes
    {
        --(constructors)--
        +CoreCollectionsKryoTypes()
    }
    
    Project <|-- CoreCollectionsProject
    class CoreCollectionsProject
    {
        --(constructors)--
        #CoreCollectionsProject()
        --
        +CoreCollectionsProject get()
    }
    
    KryoUnitTest <|-- CoreCollectionsUnitTest
    abstract class CoreCollectionsUnitTest
    {
    }
    
@enduml

